<svg width="25" height="25" viewBox="0 0 25 25" fill="none" xmlns="http://www.w3.org/2000/svg">
<mask id="mask0_464_438" style="mask-type:luminance" maskUnits="userSpaceOnUse" x="1" y="1" width="22" height="23">
<path d="M22.7495 10.5H12.4995V14.75H18.3995C17.8495 17.45 15.5495 19 12.4995 19C8.89951 19 5.99951 16.1 5.99951 12.5C5.99951 8.90003 8.89951 6.00003 12.4995 6.00003C14.0495 6.00003 15.4495 6.55003 16.5495 7.45003L19.7495 4.25003C17.7995 2.55003 15.2995 1.50003 12.4995 1.50003C6.39951 1.50003 1.49951 6.40003 1.49951 12.5C1.49951 18.6 6.39951 23.5 12.4995 23.5C17.9995 23.5 22.9995 19.5 22.9995 12.5C22.9995 11.85 22.8995 11.15 22.7495 10.5Z" fill="white"/>
</mask>
<g mask="url(#mask0_464_438)">
<path d="M0.499512 19V5.99997L8.99951 12.5L0.499512 19Z" fill="#FBBC05"/>
</g>
<mask id="mask1_464_438" style="mask-type:luminance" maskUnits="userSpaceOnUse" x="1" y="1" width="22" height="23">
<path d="M22.7495 10.5H12.4995V14.75H18.3995C17.8495 17.45 15.5495 19 12.4995 19C8.89951 19 5.99951 16.1 5.99951 12.5C5.99951 8.90003 8.89951 6.00003 12.4995 6.00003C14.0495 6.00003 15.4495 6.55003 16.5495 7.45003L19.7495 4.25003C17.7995 2.55003 15.2995 1.50003 12.4995 1.50003C6.39951 1.50003 1.49951 6.40003 1.49951 12.5C1.49951 18.6 6.39951 23.5 12.4995 23.5C17.9995 23.5 22.9995 19.5 22.9995 12.5C22.9995 11.85 22.8995 11.15 22.7495 10.5Z" fill="white"/>
</mask>
<g mask="url(#mask1_464_438)">
<path d="M0.499512 5.99997L8.99951 12.5L12.4995 9.44997L24.4995 7.49997V0.499969H0.499512V5.99997Z" fill="#EA4335"/>
</g>
<mask id="mask2_464_438" style="mask-type:luminance" maskUnits="userSpaceOnUse" x="1" y="1" width="22" height="23">
<path d="M22.7495 10.5H12.4995V14.75H18.3995C17.8495 17.45 15.5495 19 12.4995 19C8.89951 19 5.99951 16.1 5.99951 12.5C5.99951 8.90003 8.89951 6.00003 12.4995 6.00003C14.0495 6.00003 15.4495 6.55003 16.5495 7.45003L19.7495 4.25003C17.7995 2.55003 15.2995 1.50003 12.4995 1.50003C6.39951 1.50003 1.49951 6.40003 1.49951 12.5C1.49951 18.6 6.39951 23.5 12.4995 23.5C17.9995 23.5 22.9995 19.5 22.9995 12.5C22.9995 11.85 22.8995 11.15 22.7495 10.5Z" fill="white"/>
</mask>
<g mask="url(#mask2_464_438)">
<path d="M0.499512 19L15.4995 7.49997L19.4495 7.99997L24.4995 0.499969V24.5H0.499512V19Z" fill="#34A853"/>
</g>
<mask id="mask3_464_438" style="mask-type:luminance" maskUnits="userSpaceOnUse" x="1" y="1" width="22" height="23">
<path d="M22.7495 10.5H12.4995V14.75H18.3995C17.8495 17.45 15.5495 19 12.4995 19C8.89951 19 5.99951 16.1 5.99951 12.5C5.99951 8.90003 8.89951 6.00003 12.4995 6.00003C14.0495 6.00003 15.4495 6.55003 16.5495 7.45003L19.7495 4.25003C17.7995 2.55003 15.2995 1.50003 12.4995 1.50003C6.39951 1.50003 1.49951 6.40003 1.49951 12.5C1.49951 18.6 6.39951 23.5 12.4995 23.5C17.9995 23.5 22.9995 19.5 22.9995 12.5C22.9995 11.85 22.8995 11.15 22.7495 10.5Z" fill="white"/>
</mask>
<g mask="url(#mask3_464_438)">
<path d="M24.5 24.5L9 12.5L7 11L24.5 5.99997V24.5Z" fill="#4285F4"/>
</g>
</svg>
