<svg width="69" height="69" viewBox="0 0 69 69" fill="none" xmlns="http://www.w3.org/2000/svg">
<circle cx="34.5" cy="34.5" r="34.5" fill="#011312"/>
<path d="M18.3281 18.3281H20.4404C20.8383 18.3281 21.0372 18.3281 21.1973 18.4013C21.3384 18.4658 21.4579 18.5695 21.5417 18.7C21.6368 18.8481 21.6649 19.0451 21.7212 19.4389L22.4866 24.7969M22.4866 24.7969L24.1877 37.3C24.4036 38.8867 24.5115 39.68 24.8908 40.2772C25.2251 40.8034 25.7043 41.2218 26.2707 41.482C26.9136 41.7774 27.7142 41.7774 29.3155 41.7774H43.1552C44.6795 41.7774 45.4416 41.7774 46.0644 41.5031C46.6136 41.2613 47.0847 40.8715 47.425 40.3772C47.811 39.8167 47.9536 39.068 48.2388 37.5707L50.3793 26.3327C50.4797 25.8057 50.5299 25.5422 50.4572 25.3362C50.3934 25.1555 50.2675 25.0034 50.1019 24.9069C49.9132 24.7969 49.6449 24.7969 49.1084 24.7969H22.4866ZM31.2656 49.0547C31.2656 49.9478 30.5416 50.6719 29.6484 50.6719C28.7553 50.6719 28.0313 49.9478 28.0313 49.0547C28.0313 48.1615 28.7553 47.4375 29.6484 47.4375C30.5416 47.4375 31.2656 48.1615 31.2656 49.0547ZM44.2031 49.0547C44.2031 49.9478 43.4791 50.6719 42.5859 50.6719C41.6928 50.6719 40.9688 49.9478 40.9688 49.0547C40.9688 48.1615 41.6928 47.4375 42.5859 47.4375C43.4791 47.4375 44.2031 48.1615 44.2031 49.0547Z" stroke="#44D7C6" stroke-width="4.125" stroke-linecap="round" stroke-linejoin="round"/>
</svg>
