<svg width="239" height="69" viewBox="0 0 239 69" fill="none" xmlns="http://www.w3.org/2000/svg">
<rect x="5" y="48" width="223.822" height="18" rx="2" fill="url(#paint0_linear_15_8)" fill-opacity="0.5"/>
<path d="M5.17 55V16.5H21.175C23.375 16.5 25.355 17.0317 27.115 18.095C28.9117 19.1583 30.3417 20.6067 31.405 22.44C32.4683 24.2733 33 26.3267 33 28.6C33 30.91 32.4683 33 31.405 34.87C30.3417 36.7033 28.9117 38.17 27.115 39.27C25.355 40.37 23.375 40.92 21.175 40.92H12.32V55H5.17ZM12.32 34.32H20.68C21.5967 34.32 22.4217 34.0633 23.155 33.55C23.925 33.0367 24.53 32.3583 24.97 31.515C25.4467 30.6717 25.685 29.7183 25.685 28.655C25.685 27.5917 25.4467 26.6567 24.97 25.85C24.53 25.0067 23.925 24.3467 23.155 23.87C22.4217 23.3567 21.5967 23.1 20.68 23.1H12.32V34.32ZM39.3555 55V26.015H46.0105L46.1205 35.255L45.1855 33.165C45.5888 31.6983 46.2855 30.3783 47.2755 29.205C48.2655 28.0317 49.4022 27.115 50.6855 26.455C52.0055 25.7583 53.3805 25.41 54.8105 25.41C55.4338 25.41 56.0205 25.465 56.5705 25.575C57.1572 25.685 57.6338 25.8133 58.0005 25.96L56.1855 33.385C55.7822 33.165 55.2872 32.9817 54.7005 32.835C54.1138 32.6883 53.5272 32.615 52.9405 32.615C52.0238 32.615 51.1438 32.7983 50.3005 33.165C49.4938 33.495 48.7788 33.9717 48.1555 34.595C47.5322 35.2183 47.0372 35.9517 46.6705 36.795C46.3405 37.6017 46.1755 38.5183 46.1755 39.545V55H39.3555ZM74.8546 55.55C71.8112 55.55 69.1162 54.9083 66.7696 53.625C64.4596 52.3417 62.6446 50.6 61.3246 48.4C60.0412 46.1633 59.3996 43.615 59.3996 40.755C59.3996 38.4817 59.7662 36.41 60.4996 34.54C61.2329 32.67 62.2412 31.0567 63.5246 29.7C64.8446 28.3067 66.4029 27.2433 68.1996 26.51C70.0329 25.74 72.0312 25.355 74.1946 25.355C76.1012 25.355 77.8796 25.7217 79.5296 26.455C81.1796 27.1883 82.6096 28.1967 83.8196 29.48C85.0296 30.7267 85.9462 32.23 86.5696 33.99C87.2296 35.7133 87.5412 37.6017 87.5046 39.655L87.4496 42.02H63.9646L62.6996 37.4H81.7846L80.9046 38.335V37.125C80.7946 35.9883 80.4279 34.9983 79.8046 34.155C79.1812 33.275 78.3746 32.5967 77.3846 32.12C76.4312 31.6067 75.3679 31.35 74.1946 31.35C72.3979 31.35 70.8762 31.6983 69.6296 32.395C68.4196 33.0917 67.5029 34.1 66.8796 35.42C66.2562 36.7033 65.9446 38.3167 65.9446 40.26C65.9446 42.13 66.3296 43.7617 67.0996 45.155C67.9062 46.5483 69.0246 47.63 70.4546 48.4C71.9212 49.1333 73.6262 49.5 75.5696 49.5C76.9262 49.5 78.1729 49.28 79.3096 48.84C80.4462 48.4 81.6746 47.6117 82.9946 46.475L86.3496 51.15C85.3596 52.0667 84.2229 52.855 82.9396 53.515C81.6929 54.1383 80.3729 54.6333 78.9796 55C77.5862 55.3667 76.2112 55.55 74.8546 55.55ZM105.156 55.55C102.589 55.55 100.279 54.9083 98.2261 53.625C96.2095 52.305 94.5961 50.5267 93.3861 48.29C92.2128 46.0167 91.6261 43.4133 91.6261 40.48C91.6261 37.5833 92.2128 34.9983 93.3861 32.725C94.5595 30.4517 96.1545 28.6733 98.1711 27.39C100.224 26.07 102.534 25.41 105.101 25.41C106.494 25.41 107.833 25.63 109.116 26.07C110.436 26.51 111.609 27.115 112.636 27.885C113.663 28.6183 114.469 29.4433 115.056 30.36C115.679 31.2767 116.028 32.23 116.101 33.22L114.286 33.44V14.3H121.051V55H114.506L114.341 48.18L115.661 48.29C115.624 49.2067 115.294 50.0867 114.671 50.93C114.084 51.7733 113.314 52.5433 112.361 53.24C111.408 53.9367 110.289 54.505 109.006 54.945C107.759 55.3483 106.476 55.55 105.156 55.55ZM106.476 49.83C108.053 49.83 109.446 49.4267 110.656 48.62C111.866 47.8133 112.801 46.7133 113.461 45.32C114.158 43.9267 114.506 42.3133 114.506 40.48C114.506 38.6833 114.158 37.0883 113.461 35.695C112.801 34.265 111.866 33.165 110.656 32.395C109.446 31.5883 108.053 31.185 106.476 31.185C104.899 31.185 103.506 31.5883 102.296 32.395C101.086 33.165 100.133 34.265 99.4361 35.695C98.7761 37.0883 98.4461 38.6833 98.4461 40.48C98.4461 42.3133 98.7761 43.9267 99.4361 45.32C100.133 46.7133 101.086 47.8133 102.296 48.62C103.506 49.4267 104.899 49.83 106.476 49.83ZM139.676 55.55C137.292 55.55 135.129 54.89 133.186 53.57C131.242 52.25 129.684 50.4533 128.511 48.18C127.337 45.9067 126.751 43.3217 126.751 40.425C126.751 37.5283 127.337 34.9433 128.511 32.67C129.684 30.3967 131.279 28.6183 133.296 27.335C135.312 26.0517 137.586 25.41 140.116 25.41C141.582 25.41 142.921 25.63 144.131 26.07C145.341 26.4733 146.404 27.06 147.321 27.83C148.237 28.6 148.989 29.48 149.576 30.47C150.199 31.46 150.621 32.5233 150.841 33.66L149.356 33.275V26.015H156.176V55H149.301V48.07L150.896 47.795C150.639 48.785 150.162 49.7567 149.466 50.71C148.806 51.6267 147.962 52.4517 146.936 53.185C145.946 53.8817 144.827 54.45 143.581 54.89C142.371 55.33 141.069 55.55 139.676 55.55ZM141.546 49.555C143.122 49.555 144.516 49.17 145.726 48.4C146.936 47.63 147.871 46.5667 148.531 45.21C149.227 43.8167 149.576 42.2217 149.576 40.425C149.576 38.665 149.227 37.1067 148.531 35.75C147.871 34.3933 146.936 33.33 145.726 32.56C144.516 31.79 143.122 31.405 141.546 31.405C139.969 31.405 138.576 31.79 137.366 32.56C136.192 33.33 135.276 34.3933 134.616 35.75C133.956 37.1067 133.626 38.665 133.626 40.425C133.626 42.2217 133.956 43.8167 134.616 45.21C135.276 46.5667 136.192 47.63 137.366 48.4C138.576 49.17 139.969 49.555 141.546 49.555ZM160.829 66.055L158.244 60.885C159.784 60.885 161.012 60.6467 161.929 60.17C162.882 59.6933 163.579 58.96 164.019 57.97C164.495 56.98 164.734 55.715 164.734 54.175V26.015H171.499V55.77C171.499 57.9333 171.059 59.785 170.179 61.325C169.335 62.865 168.107 64.0383 166.494 64.845C164.917 65.6517 163.029 66.055 160.829 66.055ZM168.254 19.855C166.86 19.855 165.779 19.525 165.009 18.865C164.275 18.1683 163.909 17.1967 163.909 15.95C163.909 14.7767 164.294 13.8233 165.064 13.09C165.834 12.3567 166.897 11.99 168.254 11.99C169.61 11.99 170.655 12.3383 171.389 13.035C172.159 13.695 172.544 14.6667 172.544 15.95C172.544 17.0867 172.159 18.0217 171.389 18.755C170.619 19.4883 169.574 19.855 168.254 19.855ZM182.73 55V18.645H189.495V55H182.73ZM177.01 32.285V26.015H195.82V32.285H177.01ZM213.958 55.55C211.061 55.55 208.476 54.9083 206.203 53.625C203.93 52.305 202.133 50.5083 200.813 48.235C199.493 45.9617 198.833 43.3767 198.833 40.48C198.833 37.5833 199.493 34.9983 200.813 32.725C202.133 30.4517 203.93 28.6733 206.203 27.39C208.476 26.07 211.061 25.41 213.958 25.41C216.818 25.41 219.385 26.07 221.658 27.39C223.931 28.6733 225.71 30.4517 226.993 32.725C228.313 34.9983 228.973 37.5833 228.973 40.48C228.973 43.3767 228.313 45.9617 226.993 48.235C225.71 50.5083 223.931 52.305 221.658 53.625C219.385 54.9083 216.818 55.55 213.958 55.55ZM213.958 49.555C215.535 49.555 216.928 49.1517 218.138 48.345C219.385 47.5383 220.356 46.4567 221.053 45.1C221.786 43.7433 222.135 42.2033 222.098 40.48C222.135 38.72 221.786 37.1617 221.053 35.805C220.356 34.4483 219.385 33.385 218.138 32.615C216.928 31.8083 215.535 31.405 213.958 31.405C212.381 31.405 210.951 31.8083 209.668 32.615C208.421 33.385 207.45 34.4667 206.753 35.86C206.056 37.2167 205.708 38.7567 205.708 40.48C205.708 42.2033 206.056 43.7433 206.753 45.1C207.45 46.4567 208.421 47.5383 209.668 48.345C210.951 49.1517 212.381 49.555 213.958 49.555Z" fill="#011312"/>
<defs>
<linearGradient id="paint0_linear_15_8" x1="5" y1="57" x2="219.563" y2="57" gradientUnits="userSpaceOnUse">
<stop stop-color="#44D7C6"/>
<stop offset="1" stop-color="#44D7C6" stop-opacity="0.75"/>
</linearGradient>
</defs>
</svg>
