<svg width="170" height="42" viewBox="0 0 170 42" fill="none" xmlns="http://www.w3.org/2000/svg">
<path d="M0.893724 33.0167V4.02092H12.9477C14.6046 4.02092 16.0958 4.42134 17.4213 5.22218C18.7745 6.02302 19.8515 7.11381 20.6523 8.49456C21.4531 9.87532 21.8536 11.4218 21.8536 13.1339C21.8536 14.8736 21.4531 16.4477 20.6523 17.8561C19.8515 19.2368 18.7745 20.3414 17.4213 21.1699C16.0958 21.9983 14.6046 22.4126 12.9477 22.4126H6.27866V33.0167H0.893724ZM6.27866 17.4418H12.5749C13.2653 17.4418 13.8866 17.2485 14.4389 16.8619C15.0188 16.4753 15.4745 15.9644 15.8059 15.3293C16.1649 14.6941 16.3444 13.9762 16.3444 13.1753C16.3444 12.3745 16.1649 11.6703 15.8059 11.0628C15.4745 10.4276 15.0188 9.93055 14.4389 9.57155C13.8866 9.18494 13.2653 8.99163 12.5749 8.99163H6.27866V17.4418ZM26.6401 33.0167V11.187H31.6523L31.7351 18.146L31.0309 16.572C31.3347 15.4674 31.8594 14.4732 32.605 13.5895C33.3506 12.7059 34.2067 12.0155 35.1732 11.5184C36.1673 10.9937 37.2029 10.7314 38.2799 10.7314C38.7493 10.7314 39.1912 10.7728 39.6054 10.8557C40.0472 10.9385 40.4062 11.0351 40.6824 11.1456L39.3154 16.7377C39.0117 16.572 38.6389 16.4339 38.197 16.3234C37.7552 16.213 37.3134 16.1577 36.8715 16.1577C36.1811 16.1577 35.5184 16.2958 34.8832 16.572C34.2757 16.8205 33.7372 17.1795 33.2677 17.649C32.7983 18.1184 32.4255 18.6707 32.1493 19.3059C31.9008 19.9134 31.7765 20.6038 31.7765 21.377V33.0167H26.6401ZM53.3758 33.431C51.0838 33.431 49.0541 32.9477 47.2867 31.9812C45.547 31.0146 44.18 29.7029 43.1859 28.046C42.2193 26.3615 41.7361 24.4423 41.7361 22.2883C41.7361 20.5762 42.0122 19.0159 42.5645 17.6075C43.1168 16.1992 43.8762 14.9841 44.8428 13.9623C45.8369 12.913 47.0106 12.1121 48.3637 11.5598C49.7444 10.9799 51.2495 10.69 52.8788 10.69C54.3147 10.69 55.6541 10.9661 56.8967 11.5184C58.1394 12.0707 59.2164 12.8301 60.1277 13.7967C61.039 14.7356 61.7294 15.8678 62.1988 17.1933C62.6959 18.4912 62.9306 19.9134 62.903 21.4598L62.8616 23.241H45.1742L44.2214 19.7615H58.5951L57.9323 20.4657V19.5544C57.8495 18.6983 57.5733 17.9527 57.1039 17.3176C56.6344 16.6548 56.0269 16.1439 55.2813 15.7849C54.5633 15.3983 53.7624 15.205 52.8788 15.205C51.5256 15.205 50.3796 15.4674 49.4407 15.9921C48.5294 16.5167 47.839 17.2762 47.3695 18.2703C46.9001 19.2368 46.6654 20.4519 46.6654 21.9155C46.6654 23.3239 46.9553 24.5527 47.5352 25.6021C48.1428 26.6515 48.985 27.4661 50.062 28.046C51.1666 28.5983 52.4507 28.8745 53.9143 28.8745C54.9361 28.8745 55.875 28.7088 56.7311 28.3774C57.5871 28.046 58.5122 27.4523 59.5064 26.5962L62.0331 30.1172C61.2875 30.8075 60.4315 31.4013 59.4649 31.8983C58.526 32.3678 57.5319 32.7406 56.4825 33.0167C55.4331 33.2929 54.3976 33.431 53.3758 33.431ZM76.1971 33.431C74.264 33.431 72.5243 32.9477 70.9778 31.9812C69.459 30.987 68.2439 29.6477 67.3326 27.9632C66.449 26.251 66.0071 24.2904 66.0071 22.0812C66.0071 19.8996 66.449 17.9527 67.3326 16.2406C68.2163 14.5285 69.4176 13.1891 70.9364 12.2226C72.4829 11.2285 74.2226 10.7314 76.1557 10.7314C77.205 10.7314 78.213 10.8971 79.1795 11.2285C80.1737 11.5598 81.0573 12.0155 81.8306 12.5954C82.6038 13.1477 83.2113 13.769 83.6532 14.4594C84.1226 15.1498 84.385 15.8678 84.4402 16.6134L83.0732 16.7791V2.36402H88.1682V33.0167H83.2389L83.1147 27.8803L84.1088 27.9632C84.0812 28.6536 83.8326 29.3163 83.3632 29.9515C82.9214 30.5866 82.3414 31.1665 81.6234 31.6912C80.9055 32.2159 80.0632 32.6439 79.0967 32.9753C78.1578 33.2791 77.1912 33.431 76.1971 33.431ZM77.1912 29.123C78.3787 29.123 79.428 28.8192 80.3393 28.2117C81.2506 27.6042 81.9548 26.7757 82.4519 25.7264C82.9766 24.677 83.2389 23.4619 83.2389 22.0812C83.2389 20.728 82.9766 19.5268 82.4519 18.4774C81.9548 17.4004 81.2506 16.572 80.3393 15.9921C79.428 15.3845 78.3787 15.0808 77.1912 15.0808C76.0038 15.0808 74.9544 15.3845 74.0431 15.9921C73.1318 16.572 72.4138 17.4004 71.8891 18.4774C71.3921 19.5268 71.1435 20.728 71.1435 22.0812C71.1435 23.4619 71.3921 24.677 71.8891 25.7264C72.4138 26.7757 73.1318 27.6042 74.0431 28.2117C74.9544 28.8192 76.0038 29.123 77.1912 29.123ZM102.195 33.431C100.4 33.431 98.7707 32.9339 97.3071 31.9398C95.8435 30.9456 94.6698 29.5925 93.7862 27.8803C92.9025 26.1682 92.4606 24.2213 92.4606 22.0398C92.4606 19.8582 92.9025 17.9113 93.7862 16.1992C94.6698 14.487 95.8711 13.1477 97.3899 12.1812C98.9087 11.2146 100.621 10.7314 102.526 10.7314C103.631 10.7314 104.639 10.8971 105.55 11.2285C106.461 11.5322 107.262 11.9741 107.953 12.554C108.643 13.1339 109.209 13.7967 109.651 14.5423C110.12 15.2879 110.438 16.0887 110.604 16.9448L109.485 16.6548V11.187H114.622V33.0167H109.444V27.7975L110.645 27.5904C110.452 28.336 110.093 29.0678 109.568 29.7858C109.071 30.4762 108.436 31.0975 107.663 31.6498C106.917 32.1745 106.075 32.6025 105.136 32.9339C104.225 33.2653 103.244 33.431 102.195 33.431ZM103.603 28.9159C104.791 28.9159 105.84 28.6259 106.751 28.046C107.663 27.4661 108.367 26.6653 108.864 25.6435C109.389 24.5941 109.651 23.3929 109.651 22.0398C109.651 20.7142 109.389 19.5406 108.864 18.5188C108.367 17.4971 107.663 16.6962 106.751 16.1163C105.84 15.5364 104.791 15.2464 103.603 15.2464C102.416 15.2464 101.366 15.5364 100.455 16.1163C99.5715 16.6962 98.8811 17.4971 98.3841 18.5188C97.887 19.5406 97.6385 20.7142 97.6385 22.0398C97.6385 23.3929 97.887 24.5941 98.3841 25.6435C98.8811 26.6653 99.5715 27.4661 100.455 28.046C101.366 28.6259 102.416 28.9159 103.603 28.9159ZM118.126 41.3427L116.179 37.449C117.339 37.449 118.264 37.2695 118.955 36.9105C119.673 36.5515 120.197 35.9992 120.529 35.2536C120.888 34.508 121.067 33.5552 121.067 32.3954V11.187H126.162V33.5967C126.162 35.2259 125.831 36.6205 125.168 37.7803C124.533 38.9402 123.608 39.8239 122.393 40.4314C121.205 41.0389 119.783 41.3427 118.126 41.3427ZM123.718 6.5477C122.669 6.5477 121.854 6.29917 121.274 5.8021C120.722 5.27741 120.446 4.54561 120.446 3.6067C120.446 2.72301 120.736 2.00502 121.316 1.45272C121.896 0.90042 122.696 0.624269 123.718 0.624269C124.74 0.624269 125.527 0.886613 126.079 1.4113C126.659 1.90837 126.949 2.64017 126.949 3.6067C126.949 4.46276 126.659 5.16695 126.079 5.71925C125.499 6.27155 124.712 6.5477 123.718 6.5477ZM134.621 33.0167V5.6364H139.716V33.0167H134.621ZM130.313 15.9092V11.187H144.479V15.9092H130.313ZM158.14 33.431C155.958 33.431 154.012 32.9477 152.299 31.9812C150.587 30.987 149.234 29.6339 148.24 27.9218C147.246 26.2096 146.749 24.2628 146.749 22.0812C146.749 19.8996 147.246 17.9527 148.24 16.2406C149.234 14.5285 150.587 13.1891 152.299 12.2226C154.012 11.2285 155.958 10.7314 158.14 10.7314C160.294 10.7314 162.227 11.2285 163.939 12.2226C165.651 13.1891 166.991 14.5285 167.957 16.2406C168.951 17.9527 169.448 19.8996 169.448 22.0812C169.448 24.2628 168.951 26.2096 167.957 27.9218C166.991 29.6339 165.651 30.987 163.939 31.9812C162.227 32.9477 160.294 33.431 158.14 33.431ZM158.14 28.9159C159.327 28.9159 160.377 28.6121 161.288 28.0046C162.227 27.3971 162.959 26.5824 163.484 25.5607C164.036 24.5389 164.298 23.3791 164.271 22.0812C164.298 20.7557 164.036 19.582 163.484 18.5603C162.959 17.5385 162.227 16.7377 161.288 16.1577C160.377 15.5502 159.327 15.2464 158.14 15.2464C156.953 15.2464 155.876 15.5502 154.909 16.1577C153.97 16.7377 153.238 17.5523 152.714 18.6017C152.189 19.6234 151.927 20.7833 151.927 22.0812C151.927 23.3791 152.189 24.5389 152.714 25.5607C153.238 26.5824 153.97 27.3971 154.909 28.0046C155.876 28.6121 156.953 28.9159 158.14 28.9159Z" fill="#011312"/>
</svg>
