<svg width="18" height="18" viewBox="0 0 18 18" fill="none" xmlns="http://www.w3.org/2000/svg">
<path d="M5.25 7.52159C5.60356 7.5 6.03944 7.5 6.6 7.5H11.4C11.9606 7.5 12.3964 7.5 12.75 7.52159M5.25 7.52159C4.80876 7.54853 4.49572 7.60909 4.22852 7.74524C3.80516 7.96095 3.46095 8.30516 3.24524 8.72852C3 9.20982 3 9.83988 3 11.1V12.15C3 13.4101 3 14.0402 3.24524 14.5215C3.46095 14.9448 3.80516 15.289 4.22852 15.5048C4.70982 15.75 5.33988 15.75 6.6 15.75H11.4C12.6601 15.75 13.2902 15.75 13.7715 15.5048C14.1948 15.289 14.539 14.9448 14.7548 14.5215C15 14.0402 15 13.4101 15 12.15V11.1C15 9.83988 15 9.20982 14.7548 8.72852C14.539 8.30516 14.1948 7.96095 13.7715 7.74524C13.5043 7.60909 13.1912 7.54853 12.75 7.52159M5.25 7.52159V6C5.25 3.92893 6.92893 2.25 9 2.25C11.0711 2.25 12.75 3.92893 12.75 6V7.52159" stroke="#007164" stroke-width="1.5" stroke-linecap="round" stroke-linejoin="round"/>
</svg>
